<svg xmlns="http://www.w3.org/2000/svg" version="1.1" xmlns:xlink="http://www.w3.org/1999/xlink" xmlns:svgjs="http://svgjs.dev/svgjs" width="2000" height="2075" viewBox="0 0 2000 2075"><g transform="matrix(1,0,0,1,-0.9429118062320185,0.8416322818140998)"><svg viewBox="0 0 238 247" data-background-color="#ffffff" preserveAspectRatio="xMidYMid meet" height="2075" width="2000" xmlns="http://www.w3.org/2000/svg" xmlns:xlink="http://www.w3.org/1999/xlink"><g id="tight-bounds" transform="matrix(1,0,0,1,0.11220650494161077,-0.09997365579206985)"><svg viewBox="0 0 237.77558699011678 247.2" height="247.2" width="237.77558699011678"><g><svg viewBox="0 0 237.77558699011678 247.2" height="247.2" width="237.77558699011678"><g><svg viewBox="0 0 237.77558699011678 247.2" height="247.2" width="237.77558699011678"><g id="textblocktransform"><svg viewBox="0 0 237.77558699011678 247.2" height="247.2" width="237.77558699011678" id="textblock"><g><svg viewBox="0 0 237.77558699011678 247.2" height="247.2" width="237.77558699011678"><path d="M237.219 53.02C236.101 27.36 232.915 20.227 232.915 20.227 223.134-6.202 210.927-0.506 199.961 3.292 180.601 3.446 161.318 9.091 142.002 12.119 101.458 12.581 60.568 4.986 20.225 23.717 16.436 29.464-3.931 24.846 0.674 56.304 1.881 69.39 6.286 83.913 6.151 95.922 6.755 98.026 7.593 93.202 7.951 96.23 9.203 104.39 11.249 100.541 12.926 105.365 10.589 118.246 12.266 128.971 13.864 140.21 11.048 143.135 7.437 141.749 5.816 151.449 5.648 158.479 4.743 157.145 3.748 156.837 3.021 156.632 1.557 157.402 1.803 159.608 2.641 167.152-0.958 171.514 1.3 178.904-0.254 186.91 2.373 193.838 2.015 202.511 1.971 204.255 2.217 205.744 2.608 206.154 4.341 208.361 1.814 212.672 2.083 217.342 19.856 249.262 39.139 227.195 57.348 241.872 62.077 231.608 58.522 245.516 60.411 243.36 61.887 240.846 62.96 251.263 64.625 245.362 64.882 243.668 64.491 239.665 65.408 240.435 65.888 240.846 66.313 240.743 66.38 238.382 66.481 234.841 65.598 237.048 65.363 235.201 67.901 225.861 67.275 248.081 69.656 247.158 69.544 244.438 68.851 240.538 70.27 241.051 71.679 237.151 71.724 233.918 72.976 242.693 73.02 244.592 73.244 245.926 73.602 246.85 77.514 237.305 81.404 250.237 85.506 245.926 88.022 241.205 90.436 248.492 92.985 246.696 93.879 245.259 94.784 242.693 95.645 247.004 106.186 247.928 117.421 244.079 127.414 247.158 154.119 241.41 182.657 249.518 210.816 241.923 217.456 238.998 224.353 234.841 230.825 231.506 230.825 231.506 236.068 222.371 236.068 181.316S237.185 145.393 237.353 112.703C237.521 80.013 238.303 78.679 237.185 53.02Z" opacity="1" fill="#ff5858" data-fill-palette-color="tertiary"></path><g transform="matrix(1,0,0,1,55.76832,26.230666666666668)"><svg width="126.23894699011679" viewBox="0.65 -36.05 24.05 37.099999999999994" height="194.73866666666666" data-palette-color="#ffffff"><path d="M17.4-27.7L17.4-27.7 17.6-29.25Q17.6-31.55 15.8-32.2L15.8-32.2Q14.4-32.65 13.65-32.65L13.65-32.65 13.6-32.65Q12.1-32.65 11-32.18 9.9-31.7 9.4-31L9.4-31Q8.35-29.55 8.2-27.95L8.2-27.95Q8.2-26.05 9.9-24.68 11.6-23.3 14.03-22.28 16.45-21.25 18.88-20.05 21.3-18.85 23-16.6 24.7-14.35 24.7-11.2L24.7-11.2Q24.7-5.05 20.83-2 16.95 1.05 12.03 1.05 7.1 1.05 3.88-1.18 0.65-3.4 0.65-7.15L0.65-7.15 0.65-7.2Q0.65-9.05 1.23-10.43 1.8-11.8 2.6-12.45L2.6-12.45Q4.25-13.8 5.6-13.9L5.6-13.9 6.2-13.95Q7.6-13.95 8.75-13.28 9.9-12.6 9.9-11.4L9.9-11.4Q9.9-10.8 9.25-10.4 8.6-10 8.13-9.2 7.65-8.4 7.6-7.85L7.6-7.85 7.5-7.3Q7.5-4.25 10.3-3.25L10.3-3.25Q11.3-2.9 11.9-2.9L11.9-2.9Q14.65-2.9 16.32-4.55 18-6.2 18-8.75L18-8.75Q18-11.8 15.4-13.7L15.4-13.7Q13.45-15.1 11.18-16.05 8.9-17 8.1-17.4 7.3-17.8 6.4-18.35 5.5-18.9 4.4-19.9L4.4-19.9Q2-22 2-25.58 2-29.15 3.95-31.6L3.95-31.6Q7.45-36.05 14.45-36.05L14.45-36.05Q18.15-36.05 20.7-34.63 23.25-33.2 23.25-30.7L23.25-30.7Q23.25-28.9 22.23-27.7 21.2-26.5 19.6-26.5L19.6-26.5Q18.85-26.5 18.13-26.8 17.4-27.1 17.4-27.7Z" opacity="1" transform="matrix(1,0,0,1,0,0)" fill="#ffffff" class="wordmark-text-0" data-fill-palette-color="quaternary" id="text-0"></path></svg></g></svg></g></svg></g></svg></g></svg></g><defs></defs></svg><rect width="237.77558699011678" height="247.2" fill="none" stroke="none" visibility="hidden"></rect></g></svg></g></svg>